<svg width="1024" height="1024" viewBox="0 0 1024 1024" fill="none" xmlns="http://www.w3.org/2000/svg">
  <!-- Background circle -->
  <circle cx="512" cy="512" r="512" fill="#F5E6D3"/>
  
  <!-- Book -->
  <rect x="300" y="400" width="200" height="250" rx="8" fill="#8B4513"/>
  <rect x="310" y="410" width="180" height="230" rx="4" fill="#F5E6D3"/>
  
  <!-- Book pages -->
  <rect x="320" y="420" width="160" height="210" rx="2" fill="white"/>
  <rect x="330" y="430" width="140" height="190" rx="1" fill="#F8F8F8"/>
  
  <!-- Book text lines -->
  <rect x="340" y="450" width="120" height="4" rx="2" fill="#8B4513"/>
  <rect x="340" y="470" width="100" height="4" rx="2" fill="#8B4513"/>
  <rect x="340" y="490" width="110" height="4" rx="2" fill="#8B4513"/>
  <rect x="340" y="510" width="90" height="4" rx="2" fill="#8B4513"/>
  <rect x="340" y="530" width="105" height="4" rx="2" fill="#8B4513"/>
  <rect x="340" y="550" width="95" height="4" rx="2" fill="#8B4513"/>
  <rect x="340" y="570" width="115" height="4" rx="2" fill="#8B4513"/>
  
  <!-- Person head -->
  <circle cx="600" cy="380" r="40" fill="#8B4513"/>
  
  <!-- Person body -->
  <rect x="570" y="420" width="60" height="120" rx="30" fill="#8B4513"/>
  
  <!-- Person arms -->
  <rect x="540" y="440" width="40" height="80" rx="20" fill="#8B4513"/>
  <rect x="620" y="440" width="40" height="80" rx="20" fill="#8B4513"/>
  
  <!-- Person legs -->
  <rect x="580" y="540" width="20" height="60" rx="10" fill="#8B4513"/>
  <rect x="600" y="540" width="20" height="60" rx="10" fill="#8B4513"/>
  
  <!-- Reading glasses -->
  <circle cx="590" cy="375" r="15" stroke="#8B4513" stroke-width="3" fill="none"/>
  <circle cx="610" cy="375" r="15" stroke="#8B4513" stroke-width="3" fill="none"/>
  <line x1="605" y1="375" x2="595" y2="375" stroke="#8B4513" stroke-width="3"/>
  <line x1="575" y1="365" x2="565" y2="355" stroke="#8B4513" stroke-width="3"/>
  <line x1="625" y1="365" x2="635" y2="355" stroke="#8B4513" stroke-width="3"/>
  
  <!-- Thought bubble -->
  <circle cx="700" cy="300" r="25" fill="white" stroke="#8B4513" stroke-width="2"/>
  <circle cx="720" cy="280" r="15" fill="white" stroke="#8B4513" stroke-width="2"/>
  <circle cx="730" cy="260" r="8" fill="white" stroke="#8B4513" stroke-width="2"/>
  <path d="M 680 320 Q 660 340 640 320" stroke="#8B4513" stroke-width="2" fill="none"/>
  
  <!-- Book title -->
  <text x="512" y="720" text-anchor="middle" font-family="Arial, sans-serif" font-size="48" font-weight="bold" fill="#8B4513">Books</text>
</svg> 